<?xml version="1.0" encoding="UTF-8" standalone="no"?>
<svg
   height="24px"
   viewBox="0 -960 960 960"
   width="24px"
   fill="#e3e3e3"
   version="1.1"
   id="svg1"
   sodipodi:docname="search.svg"
   inkscape:version="1.4 (86a8ad7, 2024-10-11)"
   xmlns:inkscape="http://www.inkscape.org/namespaces/inkscape"
   xmlns:sodipodi="http://sodipodi.sourceforge.net/DTD/sodipodi-0.dtd"
   xmlns="http://www.w3.org/2000/svg"
   xmlns:svg="http://www.w3.org/2000/svg">
  <defs
     id="defs1" />
  <sodipodi:namedview
     id="namedview1"
     pagecolor="#ffffff"
     bordercolor="#666666"
     borderopacity="1.0"
     inkscape:showpageshadow="2"
     inkscape:pageopacity="0.0"
     inkscape:pagecheckerboard="0"
     inkscape:deskcolor="#d1d1d1"
     inkscape:zoom="33.458333"
     inkscape:cx="12"
     inkscape:cy="12"
     inkscape:window-width="1920"
     inkscape:window-height="1017"
     inkscape:window-x="-8"
     inkscape:window-y="461"
     inkscape:window-maximized="1"
     inkscape:current-layer="svg1" />
  <path
     d="m777.65-143.89-247.89-248q-29.61 24.77-68.3 38.22-38.69 13.44-79.23 13.44-100.45 0-169.78-69.36t-69.33-169.5q0-100.14 69.25-169.6 69.26-69.46 169.5-69.46t169.71 69.42q69.46 69.43 69.46 169.67 0 41.91-14.08 80.75-14.08 38.85-37.58 67.28l248 247.41-39.73 39.73Zm-395.57-252.3q76.8 0 129.9-53.02 53.1-53.03 53.1-130 0-76.98-53.1-129.98-53.1-53-130-53t-129.9 53.02q-53 53.02-53 130 0 76.98 53.01 129.98 53.02 53 129.99 53Z"
     id="path1"
     style="fill:#b3b3b3" />
</svg>
